<?xml version="1.0" encoding="utf-8"?>
<svg xmlns="http://www.w3.org/2000/svg" xmlns:xlink="http://www.w3.org/1999/xlink" version="1.1" id="Untitled-Page_x25_201" width="171" height="40">
<style type="text/css">
	.st0{fill:none;}
	.st1{fill:#717073;}
	.st2{fill:#007DB1;}
</style>
<path class="st0" d="z"/>
<path class="st0" d="z"/>
<g>
	<path class="st1" d="M175.9,2.5l-0.1,33.8l-1.8,0l0.1-33.8L175.9,2.5z"/>
	<path class="st1" d="M6.7,20.4c-2,0-3.6-0.7-4.9-2C-0.1,16.6,0,14.3,0,11.1s-0.1-5.4,1.8-7.3c1.3-1.3,2.9-2,4.9-2
		c3.4,0,6.1,2,6.7,5.8H9.8C9.5,6.1,8.5,5,6.8,5c-1,0-1.8,0.4-2.3,1c-0.7,0.8-0.9,1.6-0.9,5.2s0.2,4.4,0.9,5.2c0.5,0.6,1.3,1,2.3,1
		c1.8,0,2.7-1.1,3.1-2.6h3.6C12.8,18.5,10.1,20.4,6.7,20.4"/>
	<path class="st1" d="M26.8,18.4c-1.3,1.3-2.8,2-4.9,2c-2.1,0-3.7-0.7-5-2c-1.8-1.8-1.8-4.1-1.8-7.3c0-3.2-0.1-5.4,1.8-7.3
		c1.3-1.3,2.9-2,5-2c2.1,0,3.6,0.7,4.9,2c1.8,1.8,1.8,4.1,1.8,7.3C28.7,14.3,28.7,16.6,26.8,18.4 M24.2,6c-0.5-0.6-1.3-1-2.3-1
		c-1,0-1.8,0.4-2.3,1c-0.7,0.8-0.9,1.6-0.9,5.1c0,3.5,0.2,4.4,0.9,5.1c0.5,0.6,1.3,1,2.3,1c1,0,1.8-0.4,2.3-1
		c0.7-0.8,0.9-1.6,0.9-5.1C25.1,7.6,24.9,6.7,24.2,6"/>
	<path class="st1" d="M42.6,18.4c-1.3,1.3-2.8,2-4.9,2c-2.1,0-3.7-0.7-5-2c-1.8-1.8-1.8-4.1-1.8-7.3c0-3.2-0.1-5.4,1.8-7.3
		c1.3-1.3,2.9-2,5-2c2.1,0,3.6,0.7,4.9,2c1.8,1.8,1.8,4.1,1.8,7.3C44.4,14.3,44.5,16.6,42.6,18.4 M40,6c-0.5-0.6-1.3-1-2.3-1
		c-1,0-1.8,0.4-2.3,1c-0.7,0.8-0.9,1.6-0.9,5.1c0,3.5,0.2,4.4,0.9,5.1c0.5,0.6,1.3,1,2.3,1c1,0,1.8-0.4,2.3-1
		c0.7-0.8,0.9-1.6,0.9-5.1C40.9,7.6,40.7,6.7,40,6"/>
	<path class="st1" d="M56.7,20.2L53.1,13h-2.6v7.3H47V2h7.2C57.8,2,60,4.5,60,7.6c0,2.6-1.6,4.2-3.3,4.8l4.1,7.9H56.7z M53.9,5.1
		h-3.4V10h3.4c1.6,0,2.6-1,2.6-2.4C56.5,6.2,55.4,5.1,53.9,5.1"/>
	<path class="st1" d="M73.9,18.5c-1.2,1.2-2.9,1.7-4.8,1.7h-6.6V2h6.6c1.9,0,3.6,0.5,4.8,1.7c2.1,2.1,1.8,4.6,1.8,7.3
		C75.8,13.8,76,16.4,73.9,18.5 M71.5,6.3c-0.6-0.7-1.4-1.1-2.7-1.1h-2.7v11.9h2.7c1.2,0,2.1-0.4,2.7-1.1c0.7-0.8,0.8-2.1,0.8-4.9
		C72.2,8.3,72.1,7.1,71.5,6.3"/>
	<rect x="78.7" y="2" class="st1" width="3.6" height="18.3"/>
	<polygon class="st1" points="96.4,20.2 89.2,9 89.2,20.2 85.6,20.2 85.6,2 88.8,2 96.1,13.2 96.1,2 99.6,2 99.6,20.2 	"/>
	<path class="st1" d="M113.8,20.2l-1.1-3.2h-6.5l-1.1,3.2h-3.7L108,2h2.8l6.7,18.3H113.8z M109.5,7.4l-2.3,6.7h4.5L109.5,7.4z"/>
	<path class="st1" d="M130.7,18.5c-1.2,1.2-2.9,1.7-4.8,1.7h-6.6V2h6.6c1.9,0,3.6,0.5,4.8,1.7c2.1,2.1,1.8,4.6,1.8,7.3
		C132.5,13.8,132.7,16.4,130.7,18.5 M128.2,6.3c-0.6-0.7-1.4-1.1-2.7-1.1h-2.7v11.9h2.7c1.2,0,2.1-0.4,2.7-1.1
		c0.7-0.8,0.8-2.1,0.8-4.9C128.9,8.3,128.8,7.1,128.2,6.3"/>
	<path class="st1" d="M146.7,18.4c-1.3,1.3-2.8,2-4.9,2c-2.1,0-3.7-0.7-5-2c-1.8-1.8-1.8-4.1-1.8-7.3c0-3.2-0.1-5.4,1.8-7.3
		c1.3-1.3,2.9-2,5-2c2.1,0,3.6,0.7,4.9,2c1.8,1.8,1.8,4.1,1.8,7.3C148.5,14.3,148.5,16.6,146.7,18.4 M144.1,6c-0.5-0.6-1.3-1-2.3-1
		c-1,0-1.8,0.4-2.3,1c-0.7,0.8-0.9,1.6-0.9,5.1c0,3.5,0.2,4.4,0.9,5.1c0.5,0.6,1.3,1,2.3,1c1,0,1.8-0.4,2.3-1
		c0.7-0.8,0.9-1.6,0.9-5.1C145,7.6,144.7,6.7,144.1,6"/>
	<path class="st1" d="M161.2,20.3l-3.6-7.3H155v7.3h-3.6V2h7.2c3.7,0,6,2.6,6,5.6c0,2.6-1.6,4.2-3.4,4.8l4.1,7.9H161.2z M158.4,5.2
		H155V10h3.4c1.6,0,2.6-1,2.6-2.4C161,6.2,160,5.2,158.4,5.2"/>
	<polygon class="st1" points="0.1,37.1 0.1,24.8 7.5,24.8 7.5,25.7 1,25.7 1,30.5 6.5,30.5 6.5,31.3 1,31.3 1,36.2 7.5,36.2
		7.5,37.1 	"/>
	<polygon class="st1" points="9.7,37.1 9.7,24.8 10.7,24.8 10.7,36.2 17.2,36.2 17.2,37.1 	"/>
	<path class="st1" d="M19.2,37.1V24.8h7.4v0.8h-6.5v4.8h5.5v0.8h-5.5v4.9h6.5v0.8H19.2z M22.7,24h-1l1.7-2.5h1.2L22.7,24z"/>
	<path class="st1" d="M32.3,37.2c-1.2,0-2.3-0.4-3.1-1.3c-1.1-1.1-1.1-2.2-1.1-5c0-2.8,0-3.9,1.1-5c0.8-0.8,1.9-1.3,3.1-1.3
		c2.2,0,3.8,1.4,4.2,3.6h-0.9c-0.4-1.7-1.6-2.8-3.2-2.8c-0.9,0-1.7,0.3-2.3,0.9c-0.9,0.9-0.9,1.8-0.9,4.5c0,2.6,0.1,3.6,0.9,4.5
		c0.6,0.6,1.4,0.9,2.3,0.9c1.6,0,2.9-1.1,3.2-2.8h0.9C36.1,35.8,34.5,37.2,32.3,37.2"/>
	<polygon class="st1" points="42.2,25.7 42.2,37.1 41.3,37.1 41.3,25.7 37.7,25.7 37.7,24.8 45.9,24.8 45.9,25.7 	"/>
	<path class="st1" d="M55.1,37.1l-2.9-5.6h-3.4v5.6h-0.9V24.8h4.7c2,0,3.5,1.2,3.5,3.3c0,1.8-1.1,3-2.8,3.3l3,5.7H55.1z M52.5,25.7
		h-3.6v5h3.6c1.6,0,2.7-0.8,2.7-2.5C55.2,26.4,54,25.7,52.5,25.7"/>
	<rect x="58.6" y="24.8" class="st1" width="0.9" height="12.2"/>
	<path class="st1" d="M66.3,37.2c-1.2,0-2.3-0.4-3.1-1.3c-1.1-1.1-1.1-2.2-1.1-5c0-2.8,0-3.9,1.1-5c0.8-0.8,1.9-1.3,3.1-1.3
		c2.2,0,3.8,1.4,4.2,3.6h-0.9c-0.4-1.7-1.6-2.8-3.2-2.8c-0.9,0-1.7,0.3-2.3,0.9C63.1,27.4,63,28.3,63,31c0,2.6,0.1,3.6,0.9,4.5
		c0.6,0.6,1.4,0.9,2.3,0.9c1.6,0,2.9-1.1,3.2-2.8h0.9C70,35.8,68.4,37.2,66.3,37.2"/>
	<path class="st1" d="M79.9,35.9c-0.8,0.8-1.9,1.3-3.1,1.3c-1.2,0-2.3-0.4-3.1-1.3c-1.1-1.1-1.1-2.2-1.1-5c0-2.8,0-3.9,1.1-5
		c0.8-0.8,1.9-1.3,3.1-1.3c1.2,0,2.2,0.4,3.1,1.3c1.1,1.1,1.1,2.2,1.1,5C81,33.7,81,34.8,79.9,35.9 M79.1,26.5
		c-0.6-0.6-1.4-0.9-2.3-0.9c-0.9,0-1.7,0.3-2.3,0.9c-0.9,0.9-0.9,1.8-0.9,4.5c0,2.6,0.1,3.6,0.9,4.5c0.6,0.6,1.4,0.9,2.3,0.9
		c0.9,0,1.7-0.3,2.3-0.9c0.9-0.9,0.9-1.8,0.9-4.5C80.1,28.3,80,27.4,79.1,26.5"/>
	<polygon class="st1" points="96.2,37.1 89.1,26.4 89.1,37.1 88.2,37.1 88.2,24.8 89.1,24.8 96.2,35.4 96.2,24.8 97.1,24.8
		97.1,37.1 	"/>
	<path class="st1" d="M107.9,37.1l-1.1-3h-5.7l-1.1,3h-1l4.5-12.2h0.8l4.5,12.2H107.9z M104,26.1l-2.6,7.2h5.1L104,26.1z"/>
	<path class="st1" d="M114.2,37.2c-1.2,0-2.3-0.4-3.1-1.3c-1.1-1.1-1.1-2.2-1.1-5c0-2.8,0-3.9,1.1-5c0.8-0.8,1.9-1.3,3.1-1.3
		c2.2,0,3.8,1.4,4.2,3.6h-0.9c-0.4-1.7-1.6-2.8-3.2-2.8c-0.9,0-1.7,0.3-2.3,0.9c-0.9,0.9-0.9,1.8-0.9,4.5c0,2.6,0.1,3.6,0.9,4.5
		c0.6,0.6,1.4,0.9,2.3,0.9c1.6,0,2.9-1.1,3.2-2.8h0.9C118,35.8,116.4,37.2,114.2,37.2"/>
	<rect x="120.8" y="24.8" class="st1" width="0.9" height="12.2"/>
	<path class="st1" d="M131.6,35.9c-0.8,0.8-1.9,1.3-3.1,1.3c-1.2,0-2.3-0.4-3.1-1.3c-1.1-1.1-1.1-2.2-1.1-5c0-2.8,0-3.9,1.1-5
		c0.8-0.8,1.9-1.3,3.1-1.3c1.2,0,2.3,0.4,3.1,1.3c1.1,1.1,1.1,2.2,1.1,5C132.7,33.7,132.7,34.8,131.6,35.9 M130.8,26.5
		c-0.6-0.6-1.4-0.9-2.3-0.9s-1.7,0.3-2.3,0.9c-0.9,0.9-0.9,1.8-0.9,4.5c0,2.6,0.1,3.6,0.9,4.5c0.6,0.6,1.4,0.9,2.3,0.9
		s1.7-0.3,2.3-0.9c0.9-0.9,0.9-1.8,0.9-4.5C131.8,28.3,131.7,27.4,130.8,26.5"/>
	<polygon class="st1" points="143.3,37.1 136.2,26.4 136.2,37.1 135.3,37.1 135.3,24.8 136.2,24.8 143.3,35.4 143.3,24.8
		144.2,24.8 144.2,37.1 	"/>
	<path class="st1" d="M155,37.1l-1.1-3h-5.7l-1.1,3h-1l4.5-12.2h0.8l4.5,12.2H155z M151.1,26.1l-2.6,7.2h5.1L151.1,26.1z"/>
	<polygon class="st1" points="157.9,37.1 157.9,24.8 158.8,24.8 158.8,36.2 165.3,36.2 165.3,37.1 	"/>
</g>
</svg>
